<svg width="352" height="167" viewBox="0 0 352 167" fill="none" xmlns="http://www.w3.org/2000/svg">
<g clip-path="url(#clip0_230_397)">
<path fill-rule="evenodd" clip-rule="evenodd" d="M331.412 66.9983C332.672 66.6885 333.99 66.5335 335.371 66.5335C339.956 66.5335 343.87 68.2407 347.117 71.6582C350.363 75.0756 351.985 79.1995 351.985 84.0236C351.985 87.0197 351.358 89.7462 350.104 92.2001C350.707 93.5386 351.046 95.0382 351.046 96.6183V136.621C351.046 142.325 346.655 146.951 341.236 146.951H329.508C325.997 146.951 322.915 145.008 321.185 142.086C319.875 143.18 318.459 144.147 316.941 144.986C313.459 146.907 309.527 147.936 305.115 147.936C304.306 147.936 303.511 147.908 302.728 147.843V155.391C302.728 161.095 298.337 165.717 292.919 165.717H281.19C275.772 165.717 271.381 161.095 271.381 155.391V146.951H239.518C238.497 146.951 237.511 146.787 236.587 146.48C235.66 146.787 234.674 146.951 233.653 146.951H222.863C221.742 146.951 220.665 146.752 219.661 146.384C216.794 147.415 213.795 147.936 210.667 147.936C207.915 147.936 205.263 147.527 202.714 146.715C201.06 146.192 199.524 145.507 198.105 144.67C196.743 149.965 194.385 154.281 191.236 157.69C186.033 163.328 178.301 166.706 167.667 166.706C163.532 166.706 159.465 166.219 155.459 165.249C150.768 164.112 146.441 161.919 142.498 158.628C138.489 155.285 137.594 149.262 140.437 144.788L141.812 142.629C140.555 143.499 139.216 144.274 137.794 144.955C133.621 146.951 129.298 147.936 124.821 147.936C120.715 147.936 116.85 147.223 113.22 145.835C111.146 145.039 109.222 144.054 107.445 142.883C105.654 145.355 102.827 146.951 99.6451 146.951H64.8554C59.4371 146.951 55.0447 142.325 55.0447 136.621V78.4032L54.6886 78.5737C49.826 80.7983 44.8197 81.8982 39.675 81.8982C34.1116 81.8982 28.9894 80.947 24.2971 79.1128C19.3538 77.1794 15.0942 74.3878 11.4927 70.7813C7.85702 67.1408 5.00246 62.7474 2.97081 57.5701C1.02245 52.6034 0 47.0698 0 40.9506C0 34.8314 1.02245 29.2978 2.97081 24.3312C5.00246 19.1539 7.85702 14.7574 11.4927 11.1199C15.0942 7.51346 19.3538 4.72186 24.2971 2.7885C28.9894 0.954286 34.1116 0 39.675 0C41.7623 0 43.937 0.195174 46.1985 0.597957C48.5204 1.01313 50.8072 1.66998 53.0575 2.57159C55.4194 3.51968 57.6903 4.77763 59.8647 6.35468C62.1607 8.02158 64.2262 10.0572 66.0468 12.4739C67.6611 14.6179 68.3386 17.2298 68.1329 19.7581H76.5735C77.6239 19.7581 78.6361 19.9316 79.5847 20.2538C81.9559 19.2964 84.6439 18.7697 87.6748 18.7697C88.6033 18.7697 89.5316 18.8068 90.4602 18.8812C91.799 18.9896 93.0328 19.2189 94.1656 19.5443C96.1916 20.1267 97.9231 21.3506 99.1822 22.9772C100.568 22.1685 102.037 21.4683 103.59 20.8735C107.22 19.4823 111.085 18.7697 115.191 18.7697C119.309 18.7697 123.04 19.5691 126.404 21.0686C129.674 22.5249 132.482 24.5635 134.842 27.1599C137.824 24.4427 141.244 22.3668 145.111 20.9478C149.067 19.4978 153.166 18.7697 157.408 18.7697C162.293 18.7697 166.293 19.5412 169.439 20.827C170.396 21.2174 171.302 21.6573 172.162 22.1438C173.298 21.1492 174.646 20.4211 176.129 20.0462V18.2306C176.129 12.5265 180.52 7.90384 185.938 7.90384H197.667C200.336 7.90384 202.756 9.02544 204.524 10.8504C205.334 8.76208 206.558 6.85348 208.2 5.12461C211.447 1.70715 215.361 0 219.946 0C224.529 0 228.443 1.70715 231.69 5.12461C234.936 8.54517 236.558 12.666 236.558 17.4901C236.558 18.2646 236.516 19.0207 236.428 19.7581H242.926C247.023 19.7581 250.691 22.4381 252.121 26.4783L252.274 26.9121L252.339 26.7138C253.704 22.5496 257.43 19.7581 261.613 19.7581H273.417C276.322 19.7581 279.057 21.1089 280.908 23.4203C282.506 22.4226 284.219 21.5737 286.049 20.8735C289.678 19.4823 293.546 18.7697 297.651 18.7697C301.769 18.7697 305.501 19.5691 308.865 21.0686C312.476 22.6798 315.525 24.9973 318.033 27.9934C320.384 30.8067 322.235 34.1684 323.513 38.1157C324.669 41.6911 325.287 45.6756 325.287 50.0876V53.9574C325.287 56.402 324.478 58.6483 323.13 60.4143C323.23 60.7923 323.31 61.1796 323.368 61.5731L323.392 61.5328C323.804 64.6529 325.785 67.776 331.412 66.9983ZM189.635 133.247C189.635 140.819 187.825 146.57 184.202 150.492C180.579 154.415 175.066 156.379 167.667 156.379C164.28 156.379 160.942 155.979 157.661 155.183C154.376 154.39 151.354 152.838 148.59 150.532L155.08 140.326C156.904 141.919 158.82 143.18 160.825 144.113C162.832 145.045 165.033 145.513 167.432 145.513C171.028 145.513 173.674 144.593 175.367 142.756C177.062 140.915 177.907 138.57 177.907 135.716V131.846H177.751C176.397 133.767 174.716 135.127 172.709 135.924C170.702 136.717 168.812 137.117 167.04 137.117C164.227 137.117 161.672 136.608 159.379 135.592C157.087 134.579 155.118 133.151 153.476 131.313C151.836 129.473 150.571 127.292 149.685 124.77C148.799 122.245 148.357 119.475 148.357 116.454C148.357 113.82 148.761 111.242 149.567 108.717C150.376 106.192 151.521 103.971 153.008 102.05C154.494 100.129 156.304 98.5796 158.441 97.3991C160.577 96.2187 163.002 95.63 165.713 95.63C167.379 95.63 168.903 95.8221 170.287 96.2063C171.667 96.5905 172.903 97.0831 173.998 97.6872C175.093 98.2914 176.032 98.9638 176.815 99.7043C177.595 100.445 178.221 101.173 178.689 101.885H178.845V96.6183H189.635V133.247ZM281.19 96.6183H291.98V101.885H292.136C292.604 101.173 293.216 100.445 293.972 99.7043C294.729 98.9638 295.615 98.2914 296.63 97.6872C297.648 97.0831 298.755 96.5905 299.953 96.2063C301.154 95.8221 302.431 95.63 303.785 95.63C306.598 95.63 309.153 96.1381 311.446 97.1512C313.739 98.1675 315.707 99.5927 317.35 101.433C318.989 103.27 320.255 105.452 321.141 107.977C322.026 110.502 322.471 113.272 322.471 116.29C322.471 119.091 322.065 121.764 321.258 124.314C320.449 126.867 319.304 129.132 317.818 131.106C316.331 133.083 314.521 134.66 312.385 135.84C310.248 137.021 307.823 137.609 305.115 137.609C302.663 137.609 300.383 137.213 298.272 136.416C296.162 135.62 294.429 134.263 293.075 132.342H292.919V155.391H281.19V96.6183ZM140.849 129.709C138.972 132.231 136.6 134.179 133.733 135.552C130.866 136.925 127.897 137.609 124.821 137.609C121.901 137.609 119.153 137.117 116.574 136.128C113.994 135.14 111.752 133.727 109.85 131.89C107.948 130.049 106.449 127.843 105.355 125.262C104.26 122.685 103.713 119.803 103.713 116.621C103.713 113.436 104.26 110.555 105.355 107.977C106.449 105.396 107.948 103.187 109.85 101.349C111.752 99.5122 113.994 98.0993 116.574 97.111C119.153 96.1226 121.901 95.63 124.821 95.63C127.532 95.63 129.995 96.1226 132.208 97.111C134.425 98.0993 136.302 99.5122 137.839 101.349C139.375 103.187 140.561 105.396 141.397 107.977C142.23 110.555 142.648 113.436 142.648 116.621V120.488H115.44C115.909 122.849 116.925 124.726 118.489 126.127C120.053 127.527 121.981 128.228 124.274 128.228C126.201 128.228 127.832 127.772 129.159 126.867C130.49 125.963 131.649 124.795 132.641 123.369L140.849 129.709ZM222.863 131.602H222.707C221.403 133.743 219.673 135.276 217.509 136.212C215.346 137.145 213.065 137.609 210.667 137.609C208.895 137.609 207.188 137.349 205.546 136.828C203.906 136.308 202.458 135.524 201.207 134.483C199.957 133.439 198.968 132.15 198.238 130.613C197.508 129.076 197.143 127.292 197.143 125.262C197.143 122.957 197.546 121.008 198.356 119.419C199.162 117.826 200.257 116.51 201.637 115.469C203.02 114.424 204.595 113.616 206.367 113.039C208.139 112.463 209.978 112.039 211.879 111.763C213.781 111.487 215.685 111.323 217.586 111.27C219.487 111.215 221.247 111.187 222.863 111.187C222.863 108.993 222.121 107.249 220.635 105.96C219.149 104.671 217.392 104.026 215.358 104.026C213.43 104.026 211.67 104.451 210.081 105.3C208.492 106.152 207.07 107.317 205.819 108.801L199.565 102.05C201.755 99.9088 204.31 98.3038 207.229 97.2349C210.146 96.166 213.168 95.63 216.297 95.63C219.737 95.63 222.563 96.0823 224.779 96.987C226.995 97.8917 228.767 99.224 230.094 100.981C231.425 102.734 232.349 104.891 232.87 107.441C233.391 109.994 233.653 112.943 233.653 116.29V136.621H222.863V131.602ZM329.508 96.6183H341.236V136.621H329.508V96.6183ZM64.8554 78.3444H77.0512V124.77H99.6451V136.621H64.8554V78.3444ZM239.518 124.274L259.22 106.496H239.986V96.6183H272.823V108.469L252.183 126.743H273.291V136.621H239.518V124.274ZM219.97 119.091C219.084 119.091 217.977 119.131 216.647 119.211C215.32 119.295 214.042 119.527 212.818 119.912C211.594 120.296 210.552 120.872 209.69 121.64C208.83 122.409 208.4 123.478 208.4 124.85C208.4 126.331 209.001 127.431 210.199 128.144C211.397 128.856 212.647 129.213 213.951 129.213C215.099 129.213 216.206 129.049 217.274 128.72C218.342 128.392 219.293 127.924 220.129 127.32C220.962 126.715 221.627 125.947 222.121 125.015C222.616 124.082 222.863 122.985 222.863 121.724V119.091H219.97ZM291.98 116.621C291.98 119.639 292.801 122.08 294.443 123.946C296.083 125.811 298.39 126.743 301.36 126.743C304.332 126.743 306.637 125.811 308.279 123.946C309.921 122.08 310.742 119.639 310.742 116.621C310.742 113.6 309.921 111.159 308.279 109.294C306.637 107.428 304.332 106.496 301.36 106.496C298.39 106.496 296.083 107.428 294.443 109.294C292.801 111.159 291.98 113.6 291.98 116.621ZM160.083 116.373C160.083 117.69 160.318 118.939 160.786 120.119C161.257 121.297 161.919 122.341 162.782 123.245C163.641 124.15 164.63 124.878 165.751 125.427C166.873 125.975 168.109 126.251 169.466 126.251C170.766 126.251 171.994 125.975 173.139 125.427C174.286 124.878 175.29 124.15 176.15 123.245C177.009 122.341 177.674 121.297 178.142 120.119C178.613 118.939 178.845 117.69 178.845 116.373C178.845 115.056 178.613 113.808 178.142 112.627C177.674 111.447 177.009 110.406 176.15 109.498C175.29 108.593 174.286 107.868 173.139 107.317C171.994 106.768 170.766 106.496 169.466 106.496C168.109 106.496 166.873 106.768 165.751 107.317C164.63 107.868 163.641 108.593 162.782 109.498C161.919 110.406 161.257 111.447 160.786 112.627C160.318 113.808 160.083 115.056 160.083 116.373ZM130.919 112.091C130.972 110.006 130.319 108.225 128.965 106.741C127.611 105.26 125.863 104.519 123.726 104.519C122.422 104.519 121.278 104.739 120.289 105.179C119.297 105.616 118.45 106.18 117.746 106.864C117.043 107.552 116.495 108.346 116.104 109.253C115.714 110.158 115.492 111.106 115.44 112.091H130.919ZM328.569 84.0236C328.569 82.0469 329.234 80.3614 330.564 78.9609C331.892 77.5605 333.496 76.8603 335.371 76.8603C337.248 76.8603 338.849 77.5605 340.18 78.9609C341.51 80.3614 342.172 82.0469 342.172 84.0236C342.172 85.9972 341.51 87.6858 340.18 89.0863C338.849 90.4836 337.248 91.1838 335.371 91.1838C333.496 91.1838 331.892 90.4836 330.564 89.0863C329.234 87.6858 328.569 85.9972 328.569 84.0236ZM48.9783 26.9555C47.7796 25.4187 46.3071 24.2413 44.5612 23.4172C42.8151 22.593 40.7955 22.184 38.5022 22.184C36.2089 22.184 34.0851 22.6488 32.1306 23.5814C30.1761 24.514 28.4823 25.8184 27.049 27.4915C25.6157 29.1646 24.4952 31.1537 23.6873 33.4589C22.8794 35.764 22.4756 38.2613 22.4756 40.9506C22.4756 43.6926 22.8794 46.2054 23.6873 48.4827C24.4952 50.7599 25.6027 52.7367 27.0098 54.4098C28.4172 56.0829 30.0719 57.3873 31.9743 58.3199C33.8768 59.2525 35.9222 59.7172 38.1114 59.7172C40.613 59.7172 42.8283 59.1688 44.7567 58.072C46.685 56.9752 48.2746 55.4384 49.5255 53.4617L59.689 61.4461C57.3436 64.9038 54.3728 67.4568 50.7763 69.102C47.1801 70.7473 43.4796 71.5714 39.675 71.5714C35.3489 71.5714 31.3619 70.8588 27.7135 69.4305C24.0652 68.0052 20.9119 65.9603 18.2537 63.2989C15.5957 60.6374 13.524 57.4121 12.0386 53.6259C10.5532 49.8397 9.81038 45.6136 9.81038 40.9506C9.81038 36.2845 10.5532 32.0615 12.0386 28.2723C13.524 24.4861 15.5957 21.2638 18.2537 18.6024C20.9119 15.9409 24.0652 13.896 27.7135 12.4708C31.3619 11.0424 35.3489 10.3298 39.675 10.3298C41.2384 10.3298 42.8672 10.4816 44.5612 10.7822C46.255 11.0827 47.9229 11.563 49.5646 12.2229C51.2063 12.8797 52.7829 13.7597 54.2945 14.8565C55.8058 15.9533 57.1611 17.298 58.3599 18.8905L48.9783 26.9555ZM131.219 63.175C129.342 65.7001 126.97 67.6489 124.103 69.0184C121.236 70.391 118.267 71.0788 115.191 71.0788C112.273 71.0788 109.523 70.5831 106.944 69.5947C104.364 68.6094 102.123 67.1966 100.22 65.3562C98.3178 63.5189 96.8194 61.3097 95.7249 58.7319C94.6303 56.151 94.0832 53.2696 94.0832 50.0876C94.0832 46.9056 94.6303 44.0242 95.7249 41.4433C96.8194 38.8655 98.3178 36.6563 100.22 34.819C102.123 32.9786 104.364 31.5658 106.944 30.5774C109.523 29.5921 112.273 29.0964 115.191 29.0964C117.902 29.0964 120.365 29.5921 122.578 30.5774C124.795 31.5658 126.672 32.9786 128.209 34.819C129.745 36.6563 130.931 38.8655 131.767 41.4433C132.6 44.0242 133.018 46.9056 133.018 50.0876V53.9574H105.81C106.279 56.3153 107.296 58.1959 108.859 59.5964C110.423 60.9937 112.351 61.694 114.644 61.694C116.573 61.694 118.201 61.2416 119.529 60.3369C120.86 59.4291 122.019 58.2641 123.008 56.8389L131.219 63.175ZM313.677 63.175C311.802 65.7001 309.43 67.6489 306.563 69.0184C303.697 70.391 300.727 71.0788 297.651 71.0788C294.732 71.0788 291.983 70.5831 289.405 69.5947C286.823 68.6094 284.581 67.1966 282.68 65.3562C280.778 63.5189 279.28 61.3097 278.185 58.7319C277.09 56.151 276.543 53.2696 276.543 50.0876C276.543 46.9056 277.09 44.0242 278.185 41.4433C279.28 38.8655 280.778 36.6563 282.68 34.819C284.581 32.9786 286.823 31.5658 289.405 30.5774C291.983 29.5921 294.732 29.0964 297.651 29.0964C300.362 29.0964 302.825 29.5921 305.039 30.5774C307.255 31.5658 309.13 32.9786 310.669 34.819C312.205 36.6563 313.391 38.8655 314.224 41.4433C315.06 44.0242 315.475 46.9056 315.475 50.0876V53.9574H288.269C288.739 56.3153 289.755 58.1959 291.318 59.5964C292.883 60.9937 294.811 61.694 297.104 61.694C299.032 61.694 300.662 61.2416 301.989 60.3369C303.32 59.4291 304.479 58.2641 305.468 56.8389L313.677 63.175ZM207.985 39.9623H197.667V53.2975C197.667 54.3943 197.717 55.395 197.823 56.3029C197.926 57.2076 198.161 57.9883 198.526 58.6483C198.891 59.3082 199.45 59.8133 200.207 60.1696C200.963 60.529 201.967 60.7056 203.218 60.7056C203.842 60.7056 204.663 60.6374 205.681 60.5011C206.696 60.3617 207.465 60.0487 207.985 59.553V69.8425C206.682 70.3352 205.328 70.6667 203.921 70.8309C202.514 70.9951 201.134 71.0788 199.777 71.0788C197.796 71.0788 195.972 70.8588 194.306 70.4188C192.637 69.9789 191.177 69.2818 189.926 68.3213C188.676 67.3608 187.698 66.1122 186.995 64.5754C186.292 63.0386 185.938 61.1734 185.938 58.9767V39.9623H178.433V30.0848H185.938V18.2306H197.667V30.0848H207.985V39.9623ZM163.974 65.068H163.818C162.514 67.209 160.78 68.7458 158.617 69.6784C156.454 70.611 154.176 71.0788 151.777 71.0788C150.006 71.0788 148.299 70.8185 146.656 70.2949C145.014 69.7744 143.569 68.9936 142.318 67.9495C141.067 66.9084 140.075 65.6164 139.345 64.0797C138.616 62.546 138.251 60.7613 138.251 58.7319C138.251 56.4268 138.657 54.4779 139.463 52.8854C140.273 51.2959 141.367 49.9792 142.748 48.935C144.128 47.894 145.706 47.0822 147.477 46.5059C149.249 45.9296 151.086 45.5052 152.99 45.2294C154.891 44.9568 156.792 44.7926 158.697 44.7368C160.598 44.681 162.358 44.6562 163.974 44.6562C163.974 42.4595 163.232 40.7183 161.746 39.4263C160.259 38.1374 158.499 37.4929 156.469 37.4929C154.541 37.4929 152.781 37.9174 151.192 38.7694C149.602 39.6184 148.181 40.7864 146.93 42.2674L140.676 35.5193C142.865 33.3783 145.42 31.7734 148.337 30.7013C151.256 29.6324 154.279 29.0964 157.408 29.0964C160.845 29.0964 163.673 29.5488 165.89 30.4566C168.103 31.3613 169.875 32.6905 171.205 34.4472C172.532 36.204 173.459 38.3573 173.98 40.9103C174.501 43.4603 174.763 46.4099 174.763 49.7592V70.0904H163.974V65.068ZM64.8466 30.0848H76.5735V36.5045H76.7298C77.9807 34.0351 79.4661 32.1855 81.186 30.9492C82.906 29.7161 85.0689 29.0964 87.6748 29.0964C88.3523 29.0964 89.0301 29.1243 89.7076 29.1801C90.3851 29.2358 91.0105 29.3443 91.5839 29.5085V40.7864C90.7498 40.5107 89.9289 40.3062 89.121 40.1699C88.3134 40.0304 87.4664 39.9623 86.5802 39.9623C84.3393 39.9623 82.5672 40.2907 81.264 40.9506C79.9611 41.6075 78.9578 42.5277 78.2544 43.7081C77.5507 44.8886 77.0945 46.3015 76.8861 47.9467C76.6777 49.595 76.5735 51.4044 76.5735 53.3811V70.0904H64.8466V30.0848ZM214.081 30.0848H225.809V70.0904H214.081V30.0848ZM230.262 30.0848H242.926L252.545 57.2479H252.701L261.613 30.0848H273.417L258.407 70.0904H245.976L230.262 30.0848ZM161.081 52.557C160.195 52.557 159.088 52.5972 157.758 52.6809C156.427 52.7614 155.153 52.9969 153.926 53.3811C152.701 53.7653 151.66 54.3416 150.8 55.11C149.941 55.8784 149.511 56.9473 149.511 58.3199C149.511 59.8009 150.109 60.8977 151.309 61.6103C152.507 62.326 153.758 62.6823 155.062 62.6823C156.207 62.6823 157.313 62.5181 158.385 62.1866C159.453 61.8582 160.404 61.3934 161.237 60.7892C162.072 60.1851 162.735 59.4167 163.232 58.4841C163.727 57.5515 163.974 56.4547 163.974 55.1906V52.557H161.081ZM121.289 45.5609C121.342 43.4757 120.689 41.6911 119.335 40.2101C117.98 38.7291 116.234 37.9886 114.097 37.9886C112.794 37.9886 111.647 38.2055 110.657 38.6455C109.667 39.0854 108.82 39.6462 108.116 40.334C107.413 41.0188 106.866 41.8151 106.474 42.7198C106.084 43.6245 105.862 44.5726 105.81 45.5609H121.289ZM303.749 45.5609C303.802 43.4757 303.149 41.6911 301.795 40.2101C300.438 38.7291 298.693 37.9886 296.556 37.9886C295.253 37.9886 294.108 38.2055 293.116 38.6455C292.127 39.0854 291.279 39.6462 290.576 40.334C289.873 41.0188 289.325 41.8151 288.934 42.7198C288.542 43.6245 288.322 44.5726 288.269 45.5609H303.749ZM213.145 17.4901C213.145 15.5164 213.807 13.8278 215.137 12.4274C216.465 11.0301 218.069 10.3298 219.946 10.3298C221.821 10.3298 223.425 11.0301 224.753 12.4274C226.083 13.8278 226.748 15.5164 226.748 17.4901C226.748 19.4668 226.083 21.1523 224.753 22.5527C223.425 23.9532 221.821 24.6534 219.946 24.6534C218.069 24.6534 216.465 23.9532 215.137 22.5527C213.807 21.1523 213.145 19.4668 213.145 17.4901Z" fill="white"/>
</g>
<defs>
<clipPath id="clip0_230_397">
<rect width="352" height="167" fill="white"/>
</clipPath>
</defs>
</svg>
